# xmcd
#
# Track frame offsets: 
#        150
#        16650
#        35371
#        54853
#        69964
#        87733
#        106355
#        123937
#        144229
#        164785
#        181492
#        200787
#        216579
#        234879
#        252395
#
# Disc length: 3603 seconds
#
# Revision: 0
# Processed by: cddbd v1.5.2PL0 Copyright (c) Steve Scherf et al.
# Submitted via: ExactAudioCopy v1.0b3
#
DISCID=d40e110f
DTITLE=Westlife - Greatest Hits (Deluxe Edition LPCD2)
DYEAR=2015
DGENRE=
TTITLE0=The Rose
TTITLE1=Swear It Again
TTITLE2=Queen of My Heart
TTITLE3=Against all odds
TTITLE4=When You Tell Me That You Love Me
TTITLE5=Seasons in the Sun
TTITLE6=When You're Looking Like That
TTITLE7=Flying Without Wings
TTITLE8=Unbreakable
TTITLE9=Home
TTITLE10=What About Now
TTITLE11=Obvious
TTITLE12=Beautiful World
TTITLE13=Safe
TTITLE14=Us Against the World
EXTD=
EXTT0=
EXTT1=
EXTT2=
EXTT3=
EXTT4=
EXTT5=
EXTT6=
EXTT7=
EXTT8=
EXTT9=
EXTT10=
EXTT11=
EXTT12=
EXTT13=
EXTT14=
PLAYORDER=
